<svg width="100" height="100" viewBox="0 0 100 100" fill="none" xmlns="http://www.w3.org/2000/svg">
<circle cx="50" cy="50" r="50" fill="#FFF4A3"/>
<path fill-rule="evenodd" clip-rule="evenodd" d="M64 35H34C32.6193 35 31.5 36.1193 31.5 37.5V62.5C31.5 63.8807 32.6193 65 34 65H64C65.3807 65 66.5 63.8807 66.5 62.5V37.5C66.5 36.1193 65.3807 35 64 35ZM34 32.5C31.2386 32.5 29 34.7386 29 37.5V62.5C29 65.2614 31.2386 67.5 34 67.5H64C66.7614 67.5 69 65.2614 69 62.5V37.5C69 34.7386 66.7614 32.5 64 32.5H34Z" fill="#282A35"/>
<path fill-rule="evenodd" clip-rule="evenodd" d="M66.5 45H31.5V42.5H66.5V45Z" fill="#282A35"/>
<path d="M36.5 38.75C36.5 39.4404 35.9404 40 35.25 40C34.5596 40 34 39.4404 34 38.75C34 38.0596 34.5596 37.5 35.25 37.5C35.9404 37.5 36.5 38.0596 36.5 38.75Z" fill="#282A35"/>
<path d="M40.25 38.75C40.25 39.4404 39.6904 40 39 40C38.3096 40 37.75 39.4404 37.75 38.75C37.75 38.0596 38.3096 37.5 39 37.5C39.6904 37.5 40.25 38.0596 40.25 38.75Z" fill="#282A35"/>
<path d="M44 38.75C44 39.4404 43.4404 40 42.75 40C42.0596 40 41.5 39.4404 41.5 38.75C41.5 38.0596 42.0596 37.5 42.75 37.5C43.4404 37.5 44 38.0596 44 38.75Z" fill="#282A35"/>
<path d="M62.5 50.3906C55.8122 50.3906 50.3906 55.8122 50.3906 62.5C50.3906 69.1878 55.8122 74.6094 62.5 74.6094C69.1878 74.6094 74.6094 69.1878 74.6094 62.5C74.6094 55.8122 69.1878 50.3906 62.5 50.3906ZM62.5 73.0469C56.7059 73.0469 51.9531 68.3567 51.9531 62.5C51.9531 56.7059 56.6433 51.9531 62.5 51.9531C68.2941 51.9531 73.0469 56.6433 73.0469 62.5C73.0469 68.2941 68.3567 73.0469 62.5 73.0469ZM69.3213 58.4142C69.4205 58.8342 69.1604 59.2549 68.7405 59.3541C67.2265 59.7116 65.8129 60.0267 64.41 60.1897C64.4361 65.7978 65.0529 67.0251 65.7408 68.7853C65.9371 69.2876 65.6889 69.854 65.1865 70.0502C64.6837 70.2466 64.1176 69.998 63.9215 69.4959C63.4665 68.3318 63.0157 67.3199 62.7364 65.2343H62.2635C61.9838 67.3229 61.5318 68.3356 61.0785 69.4958C60.882 69.9987 60.3151 70.2463 59.8135 70.0502C59.3111 69.854 59.063 69.2876 59.2592 68.7853C59.9478 67.0234 60.5639 65.7953 60.59 60.1897C59.187 60.0267 57.7734 59.7116 56.2595 59.3541C55.8396 59.2549 55.5795 58.8342 55.6787 58.4142C55.7778 57.9943 56.1985 57.7342 56.6186 57.8333C61.7563 59.0465 63.2338 59.0488 68.3814 57.8333C68.8013 57.7346 69.2222 57.9943 69.3213 58.4142ZM60.6351 56.3382C60.6351 55.3082 61.47 54.4733 62.5 54.4733C63.53 54.4733 64.3649 55.3083 64.3649 56.3382C64.3649 57.3681 63.53 58.2031 62.5 58.2031C61.47 58.2031 60.6351 57.3682 60.6351 56.3382Z" fill="#282A35"/>
<path fill-rule="evenodd" clip-rule="evenodd" d="M62.5 73.0469C56.7059 73.0469 51.9531 68.3567 51.9531 62.5C51.9531 56.7059 56.6433 51.9531 62.5 51.9531C68.2941 51.9531 73.0469 56.6433 73.0469 62.5C73.0469 68.2941 68.3567 73.0469 62.5 73.0469ZM68.7405 59.3541C69.1604 59.2549 69.4205 58.8342 69.3213 58.4142C69.2222 57.9943 68.8013 57.7346 68.3814 57.8333C63.2338 59.0488 61.7563 59.0465 56.6186 57.8333C56.1985 57.7342 55.7778 57.9943 55.6787 58.4142C55.5795 58.8342 55.8396 59.2549 56.2595 59.3541C57.7734 59.7116 59.187 60.0267 60.59 60.1897C60.5639 65.7953 59.9478 67.0234 59.2592 68.7853C59.063 69.2876 59.3111 69.854 59.8135 70.0502C60.3151 70.2463 60.882 69.9987 61.0785 69.4958C61.5318 68.3356 61.9838 67.3229 62.2635 65.2343H62.7364C63.0157 67.3199 63.4665 68.3318 63.9215 69.4959C64.1176 69.998 64.6837 70.2466 65.1865 70.0502C65.6889 69.854 65.9371 69.2876 65.7408 68.7853C65.0529 67.0251 64.4361 65.7978 64.41 60.1897C65.8129 60.0267 67.2265 59.7116 68.7405 59.3541ZM62.5 54.4733C61.47 54.4733 60.6351 55.3082 60.6351 56.3382C60.6351 57.3682 61.47 58.2031 62.5 58.2031C63.53 58.2031 64.3649 57.3681 64.3649 56.3382C64.3649 55.3083 63.53 54.4733 62.5 54.4733Z" fill="#282A35"/>
<path d="M62.5 50.3906C55.8122 50.3906 50.3906 55.8122 50.3906 62.5C50.3906 69.1878 55.8122 74.6094 62.5 74.6094C69.1878 74.6094 74.6094 69.1878 74.6094 62.5C74.6094 55.8122 69.1878 50.3906 62.5 50.3906ZM62.5 73.0469C56.7059 73.0469 51.9531 68.3567 51.9531 62.5C51.9531 56.7059 56.6433 51.9531 62.5 51.9531C68.2941 51.9531 73.0469 56.6433 73.0469 62.5C73.0469 68.2941 68.3567 73.0469 62.5 73.0469ZM69.3213 58.4142C69.4205 58.8342 69.1604 59.2549 68.7405 59.3541C67.2265 59.7116 65.8129 60.0267 64.41 60.1897C64.4361 65.7978 65.0529 67.0251 65.7408 68.7853C65.9371 69.2876 65.6889 69.854 65.1865 70.0502C64.6837 70.2466 64.1176 69.998 63.9215 69.4959C63.4665 68.3318 63.0157 67.3199 62.7364 65.2343H62.2635C61.9838 67.3229 61.5318 68.3356 61.0785 69.4958C60.882 69.9987 60.3151 70.2463 59.8135 70.0502C59.3111 69.854 59.063 69.2876 59.2592 68.7853C59.9478 67.0234 60.5639 65.7953 60.59 60.1897C59.187 60.0267 57.7734 59.7116 56.2595 59.3541C55.8396 59.2549 55.5795 58.8342 55.6787 58.4142C55.7778 57.9943 56.1985 57.7342 56.6186 57.8333C61.7563 59.0465 63.2338 59.0488 68.3814 57.8333C68.8013 57.7346 69.2222 57.9943 69.3213 58.4142V58.4142ZM60.6351 56.3382C60.6351 55.3082 61.47 54.4733 62.5 54.4733C63.53 54.4733 64.3649 55.3083 64.3649 56.3382C64.3649 57.3681 63.53 58.2031 62.5 58.2031C61.47 58.2031 60.6351 57.3682 60.6351 56.3382V56.3382Z" fill="#FFF4A3"/>
</svg>
