<svg width="100" height="100" viewBox="0 0 100 100" fill="none" xmlns="http://www.w3.org/2000/svg">
<circle cx="50" cy="50" r="50" fill="white"/>
<g clip-path="url(#clip0_3858_77532)">
<path d="M33.1418 47.7903C33.0574 50.4446 34.384 51.62 34.4168 52.3664C34.4012 52.5184 34.3494 52.6644 34.2658 52.7922C34.1822 52.92 34.0692 53.026 33.9363 53.1012L32.4363 54.1512C32.2422 54.2873 32.0134 54.3653 31.7766 54.3762C31.7262 54.3739 30.8168 54.5907 29.3766 51.375C28.4979 52.4719 27.3799 53.3531 26.1081 53.9513C24.8364 54.5495 23.4447 54.8487 22.0394 54.8262C20.1316 54.9305 14.9613 53.7434 15.2273 48.2391C15.041 43.7532 19.2187 40.9664 23.5394 41.202C24.3715 41.2043 26.0707 41.2453 29.0461 41.9368V40.1063C29.3613 37.0055 27.3234 34.5996 23.7949 34.9606C23.5137 34.9618 21.5215 34.902 18.423 36.1453C17.5605 36.5414 17.4504 36.4758 17.1633 36.4758C16.2949 36.4758 16.6523 33.9586 16.8187 33.6399C17.4293 32.8899 21.0211 31.4895 24.5461 31.5094C26.903 31.301 29.2473 32.0284 31.0723 33.5344C31.8141 34.3642 32.38 35.3357 32.7359 36.3903C33.0918 37.4449 33.2303 38.5607 33.143 39.6703L33.1418 47.7903V47.7903ZM23.0144 51.586C26.8148 51.5309 28.4238 49.2457 28.7906 48.0153C29.0789 46.8375 29.0309 46.0922 29.0309 44.8043C27.8976 44.5325 26.2664 44.236 24.3949 44.2336C22.6195 44.1 19.3769 44.8934 19.5035 48.0141C19.3582 49.9817 20.8066 51.6938 23.0144 51.586V51.586ZM43.0441 54.2871C42.123 54.3715 41.6941 53.7176 41.5582 53.0719L35.7223 33.777C35.6086 33.4512 35.5336 33.1149 35.4973 32.7715C35.4757 32.63 35.5113 32.4856 35.5961 32.3703C35.6809 32.2549 35.8081 32.1779 35.9496 32.1563C35.9777 32.1516 35.7 32.1563 38.557 32.1563C39.5859 32.0532 39.9211 32.8629 40.0277 33.3715L44.2137 49.875L48.0996 33.3715C48.1617 32.9942 48.4441 32.0743 49.5996 32.1715H51.6105C51.8648 32.1504 52.9125 32.1129 53.0965 33.3867L57.0129 50.1012L61.3336 33.3867C61.3898 33.1313 61.6523 32.0543 62.8195 32.1715H65.1305C65.2301 32.1563 65.8512 32.0766 65.7457 33.177C65.6953 33.3938 66.1453 31.9278 59.564 53.0871C59.4293 53.7328 58.9992 54.3868 58.0781 54.3024H55.8879C54.6058 54.4371 54.4219 53.1703 54.4019 53.0426L50.516 36.9727L46.6746 53.0262C46.6558 53.1539 46.4719 54.4207 45.1887 54.286H43.0441V54.2871ZM75.0926 54.9469C74.4035 54.9481 71.1176 54.9118 68.3707 53.5067C68.0971 53.3908 67.864 53.1963 67.7011 52.9478C67.5381 52.6994 67.4526 52.4081 67.4555 52.111V50.8512C67.4555 49.861 68.182 50.0426 68.4902 50.161C69.6668 50.6368 70.4215 50.9977 71.8664 51.286C76.1613 52.1684 78.0504 51.0164 78.5133 50.761C80.0543 49.8457 80.1762 47.7516 79.1285 46.6653C77.9004 45.6352 77.3144 45.5965 72.9023 44.2043C72.3586 44.0532 67.7812 42.6094 67.7707 38.0684C67.6992 34.759 70.7062 31.4848 75.9176 31.5117C77.4023 31.5106 81.3586 31.9957 82.4297 33.3422C82.5879 33.5871 82.6664 33.8754 82.6547 34.1672V35.352C82.6547 35.8723 82.4648 36.1325 82.084 36.1325C81.1805 36.0317 79.5773 34.8235 76.323 34.8727C75.5156 34.8305 71.6484 34.9793 71.8219 37.7989C71.7715 40.0207 74.9402 40.8539 75.3023 40.95C79.575 42.2356 81.0035 42.4489 82.6992 44.4164C84.7078 47.0239 83.625 50.0766 83.209 50.9133C80.973 55.3067 75.191 54.9493 75.0926 54.9469V54.9469ZM79.8035 67.2352C71.5969 73.2961 59.6836 76.5223 49.5117 76.5223C35.7868 76.6128 22.5244 71.5661 12.3316 62.3743C11.5664 61.684 12.2414 60.7383 13.1719 61.2645C24.4786 67.7323 37.2803 71.1306 50.3062 71.1223C60.0337 71.0701 69.6549 69.0968 78.6176 65.3157C79.998 64.7297 81.1687 66.2297 79.8035 67.2352V67.2352ZM83.2242 63.334C82.1742 61.984 76.2773 62.7036 73.6371 63.0188C72.8414 63.109 72.7066 62.4188 73.4273 61.909C78.123 58.6078 85.8351 59.5535 86.7211 60.6633C87.6058 61.7731 86.4808 69.5004 82.0851 73.1918C81.4101 73.7625 80.7644 73.4614 81.0644 72.7114C82.0535 70.2211 84.2742 64.6852 83.2242 63.334Z" fill="#282A35"/>
</g>
<defs>
<clipPath id="clip0_3858_77532">
<rect width="75" height="60" fill="white" transform="translate(12 24)"/>
</clipPath>
</defs>
</svg>
