<svg width="100" height="100" viewBox="0 0 100 100" fill="none" xmlns="http://www.w3.org/2000/svg">
<circle cx="50" cy="50" r="50" fill="#D9EEE1"/>
<path fill-rule="evenodd" clip-rule="evenodd" d="M75.6399 35C75.2213 34.2751 74.6441 33.6421 74.0093 33.2755L51.9677 20.5499C50.698 19.8167 48.62 19.8167 47.3503 20.5499L25.3087 33.2755C24.0388 34.0085 23 35.8081 23 37.2743V62.7257C23 63.4589 23.2598 64.2754 23.6783 65.0001L34.2707 58.8845C32.7549 56.2692 31.8865 53.234 31.8865 49.9998C31.8865 40.1999 39.8593 32.2271 49.6592 32.2271C55.9828 32.2271 61.8803 35.63 65.0501 41.1078L60.3747 43.8133L60.3236 43.8429L57.3586 45.5587L57.3569 45.5557L51.0876 49.1753L57.3569 45.5557C55.77 42.8156 52.8205 41.1134 49.6592 41.1134C44.7591 41.1134 40.7728 45.0997 40.7728 49.9998C40.7728 54.8996 44.7591 58.8861 49.6592 58.8861C52.8204 58.8861 55.7695 57.1844 57.3567 54.4444L49.659 50.0001L49.6591 50L57.3568 54.4443L57.3591 54.4403L61.4366 56.7997L75.6398 65C76.0582 64.2753 76.3182 63.4588 76.3182 62.7256V37.2743C76.3182 36.541 76.0585 35.7247 75.64 35L60.3747 43.8133L75.6399 35ZM61.5874 56.887L65.0507 58.891C61.8808 64.3693 55.9831 67.7724 49.6592 67.7724C43.0935 67.7724 37.348 64.1937 34.2708 58.8846L23.6782 65.0002C24.0966 65.7249 24.6738 66.3581 25.3086 66.7245L47.3502 79.4501C48.6199 80.1833 50.6979 80.1833 51.9676 79.4501L74.0092 66.7245C74.6441 66.3579 75.2212 65.7249 75.6396 65L61.5874 56.887ZM67.4318 49.0109H65.457V47.0363H63.4825V49.0109H61.5076V50.9856H63.4825V52.9605H65.457V50.9856H67.4318V49.0109ZM72.8621 49.0109H74.837V50.9856H72.8621V52.9605H70.8876V50.9856H68.9128V49.0109H70.8876V47.0363H72.8621V49.0109Z" fill="#282A35"/>
</svg>
