<svg width="100" height="100" viewBox="0 0 100 100" fill="none" xmlns="http://www.w3.org/2000/svg">
<circle cx="50" cy="50" r="50" fill="#D9EEE1"/>
<path fill-rule="evenodd" clip-rule="evenodd" d="M64 35H34C32.6193 35 31.5 36.1193 31.5 37.5V62.5C31.5 63.8807 32.6193 65 34 65H64C65.3807 65 66.5 63.8807 66.5 62.5V37.5C66.5 36.1193 65.3807 35 64 35ZM34 32.5C31.2386 32.5 29 34.7386 29 37.5V62.5C29 65.2614 31.2386 67.5 34 67.5H64C66.7614 67.5 69 65.2614 69 62.5V37.5C69 34.7386 66.7614 32.5 64 32.5H34Z" fill="#282A35"/>
<path fill-rule="evenodd" clip-rule="evenodd" d="M66.5 45H31.5V42.5H66.5V45Z" fill="#282A35"/>
<path d="M36.5 38.75C36.5 39.4404 35.9404 40 35.25 40C34.5596 40 34 39.4404 34 38.75C34 38.0596 34.5596 37.5 35.25 37.5C35.9404 37.5 36.5 38.0596 36.5 38.75Z" fill="#282A35"/>
<path d="M40.25 38.75C40.25 39.4404 39.6904 40 39 40C38.3096 40 37.75 39.4404 37.75 38.75C37.75 38.0596 38.3096 37.5 39 37.5C39.6904 37.5 40.25 38.0596 40.25 38.75Z" fill="#282A35"/>
<path d="M44 38.75C44 39.4404 43.4404 40 42.75 40C42.0596 40 41.5 39.4404 41.5 38.75C41.5 38.0596 42.0596 37.5 42.75 37.5C43.4404 37.5 44 38.0596 44 38.75Z" fill="#282A35"/>
<g clip-path="url(#clip0_1166_14833)">
<path d="M63.6802 50.7052L63.6817 50.7058L71.953 54.1522L63.6802 50.7052ZM63.6802 50.7052C63.3068 50.5503 62.9064 50.4706 62.5021 50.4706C62.0978 50.4706 61.6975 50.5503 61.3241 50.7052L61.3226 50.7058M63.6802 50.7052L61.3226 50.7058M61.3226 50.7058L53.0531 54.1515C53.0527 54.1517 53.0522 54.1518 53.0518 54.152C51.9069 54.626 51.1599 55.7446 51.1599 56.9842C51.1599 65.9205 56.318 72.2077 61.3182 74.2919L61.3194 74.2925M61.3226 50.7058L61.3194 74.2925M61.3194 74.2925C62.0733 74.6055 62.9223 74.6055 63.6762 74.2925L63.6773 74.292M61.3194 74.2925L63.6773 74.292M63.6773 74.292C67.6979 72.6171 73.8401 66.9682 73.8401 56.9842M63.6773 74.292L73.8401 56.9842M73.8401 56.9842C73.8401 55.7453 73.0938 54.6269 71.9537 54.1525L73.8401 56.9842ZM60.4142 65.2223L61.1213 65.9294L61.8284 65.2223L68.075 58.9757L68.6082 59.5089L61.1213 66.9958L57.0811 62.9556L57.6143 62.4224L60.4142 65.2223ZM69.0487 59.5089L68.8285 59.2887C68.8303 59.2868 68.8322 59.2849 68.8341 59.283L69.0526 59.505L69.5355 59.9957L69.0487 59.5089ZM57.394 62.2022L57.3944 62.2025L57.394 62.2022Z" stroke="#D9EEE1" stroke-width="2"/>
<path d="M71.5691 55.0756L63.297 51.6289C63.0451 51.5244 62.7749 51.4706 62.5021 51.4706C62.2293 51.4706 61.9592 51.5244 61.7072 51.6289L53.4352 55.0756C52.664 55.3944 52.1599 56.1484 52.1599 56.9842C52.1599 65.5363 57.093 71.4474 61.7029 73.3689C62.2113 73.58 62.7843 73.58 63.2927 73.3689C66.985 71.8308 72.8401 66.5186 72.8401 56.9842C72.8401 56.1484 72.336 55.3944 71.5691 55.0756ZM69.5355 59.9958L61.6082 67.9231C61.341 68.1903 60.9016 68.1903 60.6345 67.9231L56.1538 63.4424C55.8866 63.1753 55.8866 62.7359 56.1538 62.4688L57.1275 61.4951C57.3946 61.228 57.834 61.228 58.1011 61.4951L61.1213 64.5152L67.5882 58.0484C67.8553 57.7813 68.2947 57.7813 68.5619 58.0484L69.5355 59.0221C69.807 59.2935 69.807 59.7286 69.5355 59.9958V59.9958Z" fill="#282A35"/>
</g>
<defs>
<clipPath id="clip0_1166_14833">
<rect width="25" height="25" fill="white" transform="translate(50 50)"/>
</clipPath>
</defs>
</svg>
