<svg width="100" height="100" viewBox="0 0 100 100" fill="none" xmlns="http://www.w3.org/2000/svg">
<circle cx="50" cy="50" r="50" fill="#FFF4A3"/>
<path fill-rule="evenodd" clip-rule="evenodd" d="M64 35H34C32.6193 35 31.5 36.1193 31.5 37.5V62.5C31.5 63.8807 32.6193 65 34 65H64C65.3807 65 66.5 63.8807 66.5 62.5V37.5C66.5 36.1193 65.3807 35 64 35ZM34 32.5C31.2386 32.5 29 34.7386 29 37.5V62.5C29 65.2614 31.2386 67.5 34 67.5H64C66.7614 67.5 69 65.2614 69 62.5V37.5C69 34.7386 66.7614 32.5 64 32.5H34Z" fill="#282A35"/>
<path fill-rule="evenodd" clip-rule="evenodd" d="M66.5 45H31.5V42.5H66.5V45Z" fill="#282A35"/>
<path d="M36.5 38.75C36.5 39.4404 35.9404 40 35.25 40C34.5596 40 34 39.4404 34 38.75C34 38.0596 34.5596 37.5 35.25 37.5C35.9404 37.5 36.5 38.0596 36.5 38.75Z" fill="#282A35"/>
<path d="M40.25 38.75C40.25 39.4404 39.6904 40 39 40C38.3096 40 37.75 39.4404 37.75 38.75C37.75 38.0596 38.3096 37.5 39 37.5C39.6904 37.5 40.25 38.0596 40.25 38.75Z" fill="#282A35"/>
<path d="M44 38.75C44 39.4404 43.4404 40 42.75 40C42.0596 40 41.5 39.4404 41.5 38.75C41.5 38.0596 42.0596 37.5 42.75 37.5C43.4404 37.5 44 38.0596 44 38.75Z" fill="#282A35"/>
<g clip-path="url(#clip0_1166_14815)">
<path d="M71.783 64.4647L72.7651 64.2761L72.7068 63.9725C73.105 64.5161 73.6372 64.9735 74.2842 65.2891C76.4124 66.3271 78.9848 65.4413 80.0228 63.3131C81.0608 61.1849 80.1751 58.6124 78.0469 57.5744C75.9186 56.5364 73.3462 57.4222 72.3082 59.5504C72.1225 59.931 71.9984 60.3259 71.932 60.7237L71.0955 60.8843L68.0649 61.4662L67.363 61.601C66.7571 60.1157 65.6229 58.8395 64.0664 58.0803C63.8615 57.9804 63.6546 57.894 63.4476 57.8195L63.49 55.3496C64.4375 54.9176 65.254 54.1721 65.7509 53.1534C66.8903 50.8172 65.9217 48.004 63.5855 46.8645C61.2492 45.7251 58.4361 46.6937 57.2966 49.03C56.2316 51.2135 57.0082 53.8137 59.0217 55.0746L58.9768 57.7648C57.8713 58.1277 56.8547 58.7715 56.0532 59.6655L55.6151 59.4518L53.3962 58.3696L52.8205 58.0888C52.8429 56.4776 51.953 54.919 50.4104 54.1666C48.2822 53.1286 45.7098 54.0144 44.6718 56.1426C43.6338 58.2708 44.5195 60.8433 46.6478 61.8813C48.1904 62.6336 49.9664 62.3753 51.2223 61.3657L51.798 61.6464L54.0169 62.7287L54.4506 62.9402C53.916 65.8497 55.3492 68.872 58.1393 70.2328C59.5546 70.9231 61.0985 71.074 62.5292 70.7627L64.5071 73.6687C63.4102 75.9937 64.382 78.771 66.6995 79.9014C69.0357 81.0408 71.8489 80.0722 72.9883 77.7359C74.1278 75.3997 73.1591 72.5865 70.8229 71.4471C69.9435 71.0182 69.0021 70.8976 68.1119 71.0252L66.3352 68.4156C66.6543 68.0328 66.9432 67.6038 67.1791 67.1201C67.4777 66.5078 67.6756 65.8727 67.7792 65.2335L68.7525 65.0466L71.783 64.4647ZM61.4233 51.2977C61.3095 51.2422 61.2598 51.0981 61.3154 50.9843C61.3709 50.8705 61.5149 50.8209 61.6288 50.8764C61.7426 50.9319 61.7922 51.076 61.7367 51.1898C61.6812 51.3036 61.5371 51.3532 61.4233 51.2977ZM60.0982 66.2163C58.9628 65.6625 58.4893 64.2874 59.0431 63.152C59.5969 62.0165 60.972 61.543 62.1074 62.0968C63.2429 62.6506 63.7164 64.0257 63.1626 65.1612C62.6088 66.2966 61.2337 66.7701 60.0982 66.2163ZM68.6585 75.8849C68.5447 75.8294 68.495 75.6853 68.5506 75.5715C68.6061 75.4577 68.7501 75.408 68.864 75.4636C68.9778 75.5191 69.0274 75.6631 68.9719 75.777C68.9164 75.8908 68.7723 75.9404 68.6585 75.8849Z" fill="#282A35" stroke="#FFF4A3" stroke-width="2"/>
</g>
<defs>
<clipPath id="clip0_1166_14815">
<rect width="36.6667" height="30" fill="white" transform="translate(51.6571 40.2998) rotate(26)"/>
</clipPath>
</defs>
</svg>
