<svg width="100" height="100" viewBox="0 0 100 100" fill="none" xmlns="http://www.w3.org/2000/svg">
<circle cx="50" cy="50" r="50" fill="#D9EEE1"/>
<g clip-path="url(#clip0_1166_14821)">
<path d="M66.2332 35.7953L58.6953 28.2575C57.8867 27.4489 56.7906 26.9907 55.6496 26.9907H37.3125C34.9316 26.9996 33 28.9313 33 31.3121V68.6871C33 71.068 34.9316 72.9996 37.3125 72.9996H63.1875C65.5684 72.9996 67.5 71.068 67.5 68.6871V38.85C67.5 37.709 67.0418 36.6039 66.2332 35.7953ZM64.2027 37.8348C64.3914 38.0235 64.5172 38.2481 64.5801 38.4996H56V29.9196C56.2516 29.9825 56.4762 30.1082 56.6648 30.2969L64.2027 37.8348ZM63.1875 70.1246H37.3125C36.5219 70.1246 35.875 69.4778 35.875 68.6871V31.3121C35.875 30.5215 36.5219 29.8746 37.3125 29.8746H53.125V39.2184C53.125 40.4133 54.0863 41.3746 55.2812 41.3746H64.625V68.6871C64.625 69.4778 63.9781 70.1246 63.1875 70.1246ZM52.0199 54.6715L56.557 47.3223C56.9883 46.6036 56.4762 45.6871 55.6316 45.6871H55.2633C54.8949 45.6871 54.5535 45.8758 54.3559 46.1813C51.5707 50.5387 51.0855 50.9879 50.25 52.8746C48.7047 49.9817 49.4953 51.4371 46.1352 46.1813C45.9375 45.8758 45.5961 45.6871 45.2277 45.6871H44.8594C44.0148 45.6871 43.5027 46.6125 43.943 47.3223L48.543 54.6715L43.2332 62.7125C42.775 63.4313 43.2871 64.3746 44.1406 64.3746H44.4551C44.8234 64.3746 45.1648 64.186 45.3625 63.8805C48.7047 58.6696 49.4324 58.2653 50.25 56.4684C53.0801 61.5625 54.2301 62.5059 55.1375 63.8895C55.3352 64.195 55.6766 64.3746 56.0359 64.3746H56.3594C57.2129 64.3746 57.725 63.4403 57.2668 62.7215L52.0199 54.6715Z" fill="#282A35"/>
</g>
<defs>
<clipPath id="clip0_1166_14821">
<rect width="34.5" height="46" fill="white" transform="translate(33 27)"/>
</clipPath>
</defs>
</svg>
