<svg width="100" height="100" viewBox="0 0 100 100" fill="none" xmlns="http://www.w3.org/2000/svg">
<circle cx="50" cy="50" r="50" fill="#FFF4A3"/>
<path d="M45.3125 38.1328H36.0547C31.3672 36.8438 20.7031 37.1953 20.7031 46.9219C20.7031 50.4375 22.4609 52.8984 24.8047 54.0703C21.875 56.7656 20.4688 58.0547 20.4688 59.8125C20.4688 61.1016 20.9375 62.2734 22.5781 62.9766C20.9375 64.5 20 65.6719 20 67.7812C20 71.5312 23.2812 73.7578 31.8359 73.7578C40.1562 73.7578 44.9609 70.7109 44.9609 65.2031C44.9609 58.2891 39.6875 58.5234 27.1484 57.8203L28.7891 55.2422C31.9531 56.1797 42.6172 56.4141 42.6172 47.2734C42.6172 45.1641 41.7969 43.6406 40.8594 42.4688L45.3125 42.1172V38.1328ZM37.8125 66.4922C37.8125 70.2422 25.5078 70.2422 25.5078 66.7266C25.5078 65.7891 26.2109 64.9688 26.7969 64.2656C35.9375 64.8516 37.8125 64.6172 37.8125 66.4922ZM31.9531 50.6719C25.7422 50.6719 25.9766 42.3516 32.0703 42.3516C37.8125 42.3516 38.0469 50.6719 31.9531 50.6719ZM47.5391 62.5078H61.1328V58.7578L58.6719 58.4062C57.9688 58.2891 57.9688 58.1719 57.9688 57.4688V37.6641H48.0078L47.5391 41.5312C50.4688 42.5859 50.7031 42.4688 50.7031 43.4062V57.4688C50.7031 58.5234 50.7031 58.2891 47.5391 58.7578V62.5078ZM53.6328 33.7969C56.4453 33.7969 57.9688 32.2734 57.9688 29.5781C57.9688 26.8828 56.4453 25.3594 53.6328 25.3594C50.9375 25.3594 49.4141 26.8828 49.4141 29.5781C49.4141 32.2734 50.9375 33.7969 53.6328 33.7969ZM80 60.6328L78.7109 56.4141C70.9766 59.3438 71.5625 54.0703 71.5625 53.25V41.8828H78.7109V37.1953H71.9141C71.4453 37.1953 71.5625 37.6641 71.5625 29.9297H66.9922C66.5234 35.0859 64.8828 37.1953 60.6641 37.6641V41.8828C64.5312 41.8828 64.4141 41.7656 64.4141 42.3516V54.8906C64.4141 60.2812 66.5234 62.5078 72.1484 62.5078C74.8438 62.5078 77.8906 61.5703 80 60.6328Z" fill="#282A35"/>
</svg>
