<svg width="100" height="100" viewBox="0 0 100 100" fill="none" xmlns="http://www.w3.org/2000/svg">
<circle cx="50" cy="50" r="50" fill="#FFF4A3"/>
<path d="M26.057 46.8075C25.947 46.8075 25.9195 46.7525 25.9745 46.67L26.5521 45.9273C26.6071 45.8448 26.7447 45.7898 26.8547 45.7898H36.6739C36.784 45.7898 36.8115 45.8723 36.7564 45.9548L36.2889 46.67C36.2339 46.7525 36.0963 46.835 36.0138 46.835L26.057 46.8075Z" fill="#282A35"/>
<path d="M21.9037 49.338C21.7937 49.338 21.7662 49.283 21.8212 49.2005L22.3988 48.4578C22.4538 48.3753 22.5913 48.3203 22.7014 48.3203H35.2436C35.3536 48.3203 35.4086 48.4028 35.3811 48.4853L35.1611 49.1455C35.1336 49.2555 35.0236 49.3105 34.9135 49.3105L21.9037 49.338Z" fill="#282A35"/>
<path d="M28.56 51.8685C28.45 51.8685 28.4224 51.786 28.4775 51.7035L28.8625 51.0159C28.9175 50.9333 29.0276 50.8508 29.1376 50.8508H34.6386C34.7486 50.8508 34.8036 50.9333 34.8036 51.0434L34.7486 51.7035C34.7486 51.8135 34.6386 51.896 34.556 51.896L28.56 51.8685Z" fill="#282A35"/>
<path d="M57.1101 46.3125C55.3773 46.7526 54.1946 47.0826 52.4893 47.5227C52.0767 47.6327 52.0492 47.6602 51.6916 47.2477C51.2791 46.7801 50.9765 46.4775 50.3989 46.2025C48.6661 45.3498 46.9883 45.5974 45.4205 46.615C43.5502 47.8253 42.5875 49.6131 42.615 51.841C42.6425 54.0414 44.1553 55.8567 46.3282 56.1592C48.1985 56.4068 49.7663 55.7467 51.004 54.3439C51.2516 54.0414 51.4716 53.7113 51.7467 53.3262C50.7565 53.3262 49.5188 53.3262 46.4382 53.3262C45.8606 53.3262 45.7231 52.9687 45.9156 52.5011C46.2732 51.6484 46.9333 50.2182 47.3184 49.5031C47.4009 49.338 47.5934 49.063 48.006 49.063C49.4087 49.063 54.5797 49.063 58.0178 49.063C57.9628 49.8056 57.9628 50.5482 57.8527 51.2909C57.5502 53.2712 56.8076 55.0866 55.5973 56.6818C53.617 59.2948 51.0315 60.9176 47.7584 61.3577C45.063 61.7152 42.56 61.1926 40.3596 59.5423C38.3243 58.0021 37.169 55.9667 36.8665 53.4363C36.5089 50.4382 37.3891 47.7427 39.2044 45.3773C41.1573 42.8194 43.7427 41.1966 46.9058 40.619C49.4913 40.1514 51.9667 40.4539 54.1946 41.9667C55.6524 42.9294 56.6975 44.2496 57.3852 45.8449C57.5502 46.0924 57.4402 46.23 57.1101 46.3125Z" fill="#282A35"/>
<path d="M66.2143 61.5227C63.7113 61.4676 61.4284 60.7525 59.5031 59.1022C57.8803 57.6995 56.8626 55.9116 56.5326 53.7938C56.0375 50.6857 56.8901 47.9352 58.7605 45.4873C60.7683 42.8468 63.1887 41.4716 66.4618 40.894C69.2673 40.3989 71.9078 40.6739 74.3007 42.2967C76.4736 43.782 77.8214 45.7898 78.1789 48.4303C78.6465 52.1435 77.5738 55.169 75.0159 57.7545C73.2005 59.5973 70.9726 60.7525 68.4147 61.2751C67.672 61.4126 66.9294 61.4401 66.2143 61.5227ZM72.7605 50.4107C72.7329 50.0531 72.7329 49.7781 72.6779 49.503C72.1828 46.78 69.6799 45.2397 67.0669 45.8448C64.509 46.4225 62.8587 48.0452 62.2536 50.6307C61.7585 52.7761 62.8037 54.949 64.784 55.8291C66.2968 56.4892 67.8096 56.4067 69.2673 55.6641C71.4402 54.5364 72.6229 52.7761 72.7605 50.4107Z" fill="#282A35"/>
</svg>
