<svg width="100" height="100" viewBox="0 0 100 100" fill="none" xmlns="http://www.w3.org/2000/svg">
<circle cx="50" cy="50" r="50" fill="#D9EEE1"/>
<path d="M22.9496 34.0968C17.4469 42.0106 18.1275 52.316 22.3274 60.7354C22.4246 60.9298 22.5413 61.1242 22.6385 61.3381C22.6969 61.4742 22.7746 61.5909 22.833 61.727C22.8719 61.8048 22.9107 61.8631 22.9496 61.9409C23.0274 62.077 23.0857 62.1937 23.1635 62.3298C23.2996 62.5631 23.4357 62.7964 23.5718 63.0103C23.6496 63.1464 23.7274 63.2631 23.8052 63.3798C23.9607 63.6131 24.1163 63.8659 24.2718 64.1186C24.3302 64.2159 24.4079 64.3325 24.4663 64.4297C24.6802 64.7603 24.9135 65.0714 25.1468 65.402L25.1663 65.4214C25.2052 65.4797 25.244 65.5186 25.2829 65.577C25.4774 65.8492 25.6913 66.1214 25.9051 66.3936C25.9829 66.4908 26.0607 66.5881 26.1385 66.6853C26.3329 66.9186 26.5079 67.1519 26.7024 67.3853C26.7801 67.463 26.8385 67.5603 26.9162 67.638C27.169 67.9491 27.4412 68.2408 27.7135 68.5519L27.7329 68.5714C27.7523 68.5908 27.7523 68.5908 27.7718 68.6102C28.0246 68.9019 28.2968 69.1741 28.569 69.4658C28.6468 69.563 28.744 69.6408 28.8218 69.7186C29.0357 69.9325 29.2495 70.1463 29.4634 70.3602C29.5607 70.438 29.6384 70.5352 29.7356 70.613C30.0273 70.8852 30.319 71.1574 30.6106 71.4102C30.6106 71.4102 30.6106 71.4102 30.6301 71.4102C30.6884 71.4491 30.7273 71.5074 30.7856 71.5463C31.0579 71.7796 31.3106 71.9935 31.5828 72.2269C31.6995 72.3241 31.7967 72.4019 31.9134 72.4991C32.1273 72.6741 32.3606 72.8491 32.5745 73.0241C32.6912 73.1213 32.8078 73.1991 32.9245 73.2963C33.1773 73.4713 33.4106 73.6657 33.6634 73.8407C33.7606 73.9185 33.8384 73.9768 33.9356 74.0352C33.955 74.0546 33.9939 74.0741 34.0134 74.0935C34.2467 74.2685 34.4995 74.4241 34.7522 74.5796C34.8495 74.6574 34.9661 74.7157 35.0634 74.7935C35.4328 75.0268 35.8217 75.2602 36.2106 75.4935C36.3078 75.5518 36.4244 75.6102 36.5217 75.6685C36.8133 75.824 37.0855 75.9796 37.3772 76.1546C37.5328 76.2324 37.6883 76.3101 37.8439 76.3879C38.0578 76.4851 38.2522 76.6018 38.4466 76.699C38.4855 76.7185 38.5439 76.7379 38.5827 76.7768C38.6605 76.8157 38.7577 76.8546 38.8355 76.8935C39.1466 77.049 39.4772 77.2046 39.8077 77.3407C39.8855 77.3796 39.9438 77.399 40.0216 77.4379C40.3911 77.6129 40.7799 77.7685 41.1494 77.9046C41.2466 77.9435 41.3244 77.9823 41.4216 78.0212C41.7716 78.1573 42.1216 78.2935 42.491 78.4101C42.5299 78.4296 42.5883 78.4296 42.6271 78.449C43.016 78.5851 43.4244 78.7212 43.8132 78.8379C43.9105 78.8573 44.0077 78.8962 44.1049 78.9157C44.5132 79.0518 44.9021 79.1879 45.3299 79.2657C71.9684 84.1267 79.7072 63.2631 79.7072 63.2631C73.2128 71.7213 61.6824 73.9574 50.7354 71.4685C50.327 71.3713 49.9187 71.2547 49.5104 71.1185C49.4132 71.0991 49.3159 71.0602 49.1993 71.0213C48.8104 70.9047 48.4215 70.7686 48.0326 70.6324C47.9743 70.613 47.916 70.5936 47.8771 70.5741C47.5271 70.438 47.1771 70.3213 46.8465 70.1852C46.7493 70.1463 46.6521 70.1074 46.5549 70.0686C46.1854 69.913 45.7965 69.7575 45.4271 69.6019C45.3493 69.563 45.2715 69.5436 45.2132 69.5047C44.9021 69.3686 44.591 69.213 44.2604 69.0575C44.1632 69.0186 44.0855 68.9797 43.9882 68.9214C43.7549 68.8047 43.5021 68.6686 43.2494 68.5519C43.0938 68.4741 42.9188 68.3769 42.7632 68.2991C42.4716 68.1436 42.1799 67.988 41.8883 67.813C41.791 67.7547 41.6938 67.7158 41.5966 67.6575C41.2077 67.4242 40.8383 67.1908 40.4494 66.9575C40.3522 66.8992 40.2355 66.8214 40.1383 66.763C39.8661 66.5881 39.5938 66.4131 39.3216 66.2186C39.2244 66.1603 39.1466 66.0825 39.0689 66.0436C38.8161 65.8686 38.5633 65.6742 38.3105 65.4797C38.1939 65.402 38.0772 65.3047 37.98 65.227C37.7467 65.052 37.5133 64.877 37.28 64.6825C37.1828 64.6047 37.0661 64.5075 36.9689 64.4297C36.6772 64.1964 36.3856 63.9436 36.1133 63.7103C36.0745 63.6909 36.055 63.652 36.0161 63.6325C35.705 63.3603 35.4133 63.0881 35.1022 62.8159C35.005 62.7381 34.9272 62.6603 34.8495 62.5826C34.6356 62.3687 34.4023 62.1548 34.2078 61.9409C34.13 61.8631 34.0328 61.7659 33.955 61.6881C33.6828 61.4159 33.4106 61.1242 33.1578 60.8326C33.1384 60.8131 33.1384 60.8131 33.1189 60.7937C32.8467 60.4826 32.5745 60.1909 32.3023 59.8798C32.2245 59.802 32.1662 59.7048 32.0884 59.627C31.894 59.3937 31.6995 59.1409 31.5051 58.9076C31.4273 58.8298 31.369 58.7326 31.2912 58.6354C31.0579 58.3437 30.844 58.0326 30.6106 57.741C24.5441 49.4577 22.3663 38.044 27.2079 28.6719" fill="#282A35"/>
<path d="M40.0605 27.4079C36.0744 33.1439 36.2883 40.8244 39.3994 46.8715C39.9244 47.8826 40.5077 48.8743 41.1688 49.8076C41.7716 50.6631 42.4327 51.6742 43.2104 52.3742C43.5021 52.6853 43.7938 52.9964 44.1049 53.3075C44.1826 53.3853 44.2604 53.4631 44.3382 53.5409C44.6299 53.8325 44.941 54.1048 45.2521 54.3964C45.2715 54.4159 45.2715 54.4159 45.291 54.4353C45.641 54.7464 45.991 55.0381 46.3604 55.3103C46.4382 55.3686 46.5159 55.4464 46.5937 55.5047C46.9632 55.777 47.3326 56.0492 47.702 56.3214C47.7215 56.3214 47.7215 56.3408 47.7409 56.3408C47.9159 56.4575 48.0715 56.5547 48.2465 56.6714C48.3243 56.7297 48.402 56.7881 48.4798 56.8269C48.752 57.0019 49.0242 57.1769 49.2965 57.3325C49.3353 57.3519 49.3742 57.3714 49.4131 57.4103C49.6465 57.5464 49.8992 57.6825 50.152 57.8186C50.2298 57.8575 50.327 57.9158 50.4048 57.9547C50.5798 58.0519 50.7353 58.1297 50.9103 58.2269C50.9298 58.2464 50.9687 58.2464 50.9881 58.2658C51.3381 58.4408 51.6881 58.5964 52.0575 58.7714C52.1353 58.8102 52.2131 58.8297 52.2909 58.8686C52.5825 58.9852 52.8742 59.1019 53.1659 59.2186C53.2825 59.2575 53.4186 59.3158 53.5353 59.3547C53.8075 59.4519 54.0797 59.5491 54.3325 59.6269C54.4492 59.6658 54.5658 59.7047 54.7019 59.7436C55.0908 59.8602 55.4603 60.0158 55.8686 60.0741C76.4794 63.4768 81.2238 47.6493 81.2238 47.6493C76.9461 53.8131 68.6629 56.7492 59.8158 54.4547C59.4269 54.3575 59.038 54.2409 58.6491 54.1242C58.5324 54.0853 58.4158 54.0464 58.2991 54.0075C58.0269 53.9103 57.7547 53.8325 57.4825 53.7159C57.3658 53.677 57.2297 53.6186 57.113 53.5798C56.8214 53.4631 56.5297 53.3464 56.238 53.2298C56.1603 53.1909 56.0825 53.1714 56.0047 53.1325C55.6353 52.977 55.2853 52.802 54.9353 52.627C54.7603 52.5492 54.5658 52.452 54.3908 52.3548C54.2936 52.2964 54.1769 52.2381 54.0797 52.1992C53.8464 52.0826 53.6325 51.9464 53.3992 51.8103C53.3408 51.7715 53.2825 51.752 53.2436 51.7131C52.9714 51.5576 52.6992 51.3826 52.427 51.2076C52.3492 51.1492 52.252 51.0909 52.1742 51.0326C51.9992 50.9159 51.8242 50.7992 51.6492 50.6826C51.2603 50.4298 50.9103 50.1381 50.5409 49.8659C50.4631 49.7881 50.3659 49.7298 50.2881 49.6715C46.4187 46.6187 43.3465 42.4382 41.8882 37.6939C40.3521 32.7745 40.6827 27.2718 43.3465 22.7996" fill="#282A35"/>
<path d="M54.4298 22.4305C52.0771 25.8916 51.8437 30.1693 53.4771 33.9998C55.1881 38.0636 58.7075 41.233 62.8297 42.7302C63.0047 42.7886 63.1603 42.8469 63.3353 42.9052C63.413 42.9247 63.4908 42.9441 63.5686 42.983C63.8019 43.0608 64.0547 43.1386 64.3075 43.1969C75.6629 45.3941 78.735 37.3637 79.5711 36.1776C76.8684 40.0664 72.3379 40.9997 66.7769 39.6386C66.3297 39.5414 65.863 39.3664 65.4352 39.2303C64.8908 39.0358 64.3464 38.822 63.8408 38.5692C62.8492 38.1025 61.9158 37.5192 61.0408 36.8581C56.0631 33.0859 52.9715 25.8721 56.2187 20" fill="#282A35"/>
</svg>
