<svg width="100" height="100" viewBox="0 0 100 100" fill="none" xmlns="http://www.w3.org/2000/svg">
<circle cx="50" cy="50" r="50" fill="#D9EEE1"/>
<g clip-path="url(#clip0_3858_77282)">
<path d="M29.368 56.9515H15V42.5864H29.368L22.184 49.7675L29.368 56.9515Z" fill="#282A35"/>
<path d="M46.7544 42.5405H43.871L37.6558 49.2071V42.5865H35.3589V56.9516H37.6558V50.0149L43.917 56.9516H46.8435L40.223 49.5204L46.7544 42.5405Z" fill="#282A35"/>
<path d="M54.5449 46.91C53.7342 46.4587 52.7884 46.1885 51.7966 46.1885C50.7617 46.1885 49.8159 46.4127 49.0052 46.91C48.1946 47.4074 47.519 48.0369 47.0677 48.8476C46.6163 49.7043 46.3921 50.6501 46.3921 51.685C46.3921 52.7199 46.6163 53.7117 47.0677 54.5223C47.519 55.333 48.1486 56.0086 49.0052 56.4599C49.8159 56.9113 50.7617 57.1815 51.7966 57.1815C52.8315 57.1815 53.7773 56.9572 54.588 56.4599C55.3987 56.0086 56.0282 55.333 56.4796 54.5223C56.9309 53.6657 57.1551 52.7199 57.1551 51.685C57.1551 50.6501 56.8849 49.7043 56.4336 48.8476C55.988 48.0341 55.3555 47.3585 54.5449 46.91ZM54.3666 53.5277C54.0964 54.0681 53.7371 54.4735 53.2857 54.7437C52.8344 55.0599 52.2939 55.195 51.7104 55.195C51.1268 55.195 50.5835 55.0599 50.089 54.7437C49.6377 54.4275 49.2783 54.0221 49.0081 53.5277C48.7379 52.9872 48.6488 52.4008 48.6488 51.7252C48.6488 51.0497 48.7839 50.4201 49.0541 49.9228C49.3243 49.3823 49.6837 48.977 50.135 48.7067C50.5863 48.3905 51.1268 48.2554 51.7564 48.2554C52.3428 48.2554 52.8833 48.3905 53.3317 48.7067C53.7831 49.023 54.1424 49.4283 54.4126 49.9228C54.6828 50.4632 54.772 51.0497 54.772 51.7252C54.772 52.4008 54.6369 52.9872 54.3666 53.5277Z" fill="#282A35"/>
<path d="M61.7979 43.8025H59.59V45.605C59.59 45.8752 59.544 46.0994 59.3658 46.2345C59.2307 46.3696 59.0064 46.4588 58.7362 46.4588H57.6553V48.3503H59.5469V54.0251C59.5469 54.6115 59.682 55.152 59.9062 55.6004C60.1305 56.0518 60.4927 56.4111 60.9412 56.6353C61.3925 56.9056 61.887 56.9947 62.5166 56.9947H64.2271V55.014H62.965C62.6488 55.014 62.3786 54.9249 62.1543 54.6546C61.9732 54.4304 61.8381 54.1142 61.8381 53.7548V48.3503H64.2702V46.4588H61.8381V43.8025H61.7979Z" fill="#282A35"/>
<path d="M68.2374 42H65.9866V56.9515H68.2374V42Z" fill="#282A35"/>
<path d="M73.1015 42.0459H70.8044V44.3888H73.1015V42.0459Z" fill="#282A35"/>
<path d="M73.0555 46.4587H70.8044V56.9947H73.0555V46.4587Z" fill="#282A35"/>
<path d="M84.5429 48.1692C84.2266 47.5396 83.7782 47.0423 83.1917 46.7289C82.6053 46.3696 81.9297 46.1885 81.1651 46.1885C80.3544 46.1885 79.6328 46.4127 79.0033 46.7749C78.5088 47.0911 78.1035 47.5396 77.7873 48.0369V46.4156H75.6255V56.9515H77.8764V51.0497C77.8764 50.4632 77.9655 49.9688 78.1926 49.5174C78.4168 49.0661 78.7331 48.7527 79.0924 48.4825C79.4977 48.2583 79.9491 48.1232 80.4895 48.1232C80.984 48.1232 81.3462 48.2123 81.7055 48.4394C82.0648 48.6665 82.292 48.9339 82.4702 49.2961C82.6513 49.6554 82.7404 50.1067 82.7404 50.6012V56.9055H84.9913V50.331C85.0402 49.5203 84.862 48.8016 84.5429 48.1692Z" fill="#282A35"/>
</g>
<defs>
<clipPath id="clip0_3858_77282">
<rect width="70" height="15.1786" fill="white" transform="translate(15 42)"/>
</clipPath>
</defs>
</svg>
