<svg width="100" height="100" viewBox="0 0 100 100" fill="none" xmlns="http://www.w3.org/2000/svg">
<circle cx="50" cy="50" r="50" fill="#FFF4A3"/>
<path d="M50.5 79.0312C51.2031 79.0312 52.0234 78.9141 52.7266 78.4453L74.4062 66.0234C75.8125 65.2031 76.6328 63.6797 76.6328 62.0391V37.0781C76.6328 35.4375 75.8125 33.9141 74.4062 33.0938L52.7266 20.5547C51.3203 19.8516 49.5625 19.8516 48.1562 20.5547L26.5938 33.0938C25.1875 33.9141 24.25 35.4375 24.25 37.0781V62.0391C24.25 63.6797 25.1875 65.2031 26.5938 66.0234L32.2188 69.1875C34.9141 70.5938 35.9688 70.5938 37.2578 70.5938C41.2422 70.5938 43.5859 68.1328 43.5859 63.7969V39.1875C43.5859 38.8359 43.3516 38.6016 43 38.6016H40.1875C39.8359 38.6016 39.6016 38.8359 39.6016 39.1875V63.7969C39.6016 65.7891 37.6094 67.6641 34.4453 66.0234L28.4688 62.625C28.2344 62.5078 28.1172 62.2734 28.1172 62.0391V37.0781C28.1172 36.8438 28.2344 36.6094 28.4688 36.4922L50.1484 23.9531C50.2656 23.8359 50.6172 23.8359 50.7344 23.9531L72.4141 36.4922C72.6484 36.6094 72.7656 36.8438 72.7656 37.0781V62.0391C72.7656 62.2734 72.6484 62.5078 72.4141 62.625L50.7344 75.1641C50.6172 75.2812 50.2656 75.2812 50.1484 75.1641L44.5234 71.7656C44.4062 71.7656 44.1719 71.6484 44.0547 71.7656C42.5312 72.7031 42.1797 72.7031 40.7734 73.2891C40.4219 73.4062 39.8359 73.6406 40.8906 74.2266L48.1562 78.4453C48.8594 78.9141 49.6797 79.0312 50.5 79.0312ZM67.9609 54.4219C67.9609 49.7344 64.7969 48.5625 58.1172 47.625C51.4375 46.8047 50.7344 46.3359 50.7344 44.6953C50.7344 43.4062 51.3203 41.7656 56.2422 41.7656C60.6953 41.7656 62.3359 42.7031 63.0391 45.6328C63.0391 45.9844 63.3906 46.2188 63.625 46.2188H66.4375C66.6719 46.2188 66.7891 46.1016 66.9062 45.9844C67.0234 45.8672 67.0234 45.6328 67.0234 45.5156C66.6719 40.3594 63.1562 37.8984 56.2422 37.8984C50.0312 37.8984 46.3984 40.4766 46.3984 44.9297C46.3984 49.6172 50.0312 50.9062 56.0078 51.4922C63.0391 52.1953 63.625 53.25 63.625 54.6562C63.625 57.1172 61.6328 58.0547 57.1797 58.0547C51.4375 58.0547 50.1484 56.6484 49.6797 53.8359C49.6797 53.4844 49.4453 53.25 49.0938 53.25H46.2812C45.9297 53.25 45.6953 53.6016 45.6953 53.9531C45.6953 57.5859 47.6875 61.9219 57.1797 61.9219C63.9766 61.9219 67.9609 59.2266 67.9609 54.4219Z" fill="#282A35"/>
</svg>
