<svg width="100" height="100" viewBox="0 0 100 100" fill="none" xmlns="http://www.w3.org/2000/svg">
<circle cx="50" cy="50" r="50" fill="white"/>
<path d="M23.3072 66.8193C22.0704 66.8193 20.8132 66.308 20.024 65.3059V70.7197H17.5505V57.3561H19.7882L19.8761 58.8214C20.6436 57.6917 22.0079 57.095 23.3084 57.0962C25.8011 57.0962 27.6394 59.1847 27.6394 61.9566C27.6394 64.7284 25.7999 66.8205 23.3072 66.8193ZM22.5408 58.9333C21.0972 58.9333 19.9182 60.0629 19.9182 61.9602C19.9182 63.8574 21.0899 64.9871 22.5396 64.9871C23.9893 64.9871 25.1587 63.8574 25.1587 61.9602C25.1587 60.0629 23.9893 58.9333 22.5408 58.9333Z" fill="#130754"/>
<path d="M36.9618 66.5653L36.8764 65.0952C36.1089 66.2248 34.7446 66.8216 33.4453 66.8216C30.9513 66.8216 29.1143 64.7319 29.1143 61.9612C29.1143 59.1906 30.9477 57.1008 33.4453 57.1021C34.7446 57.1021 36.1089 57.7036 36.8764 58.8284L36.9618 57.3583H39.1995V66.5665L36.9618 66.5653ZM34.2128 58.9343C32.7692 58.9343 31.5914 60.064 31.5914 61.9612C31.5914 63.8584 32.7631 64.9881 34.2128 64.9881C35.6625 64.9881 36.8343 63.8584 36.8343 61.9624C36.8343 60.0664 35.6625 58.9415 34.2128 58.9343Z" fill="#130754"/>
<path d="M47.8507 66.5678V61.468C47.8507 59.6778 47.2323 59.0811 46.1026 59.0811C44.9308 59.0811 43.652 60.1458 43.6508 61.4247V66.5618H41.1797V57.3583H43.4451L43.5509 59.0643C44.1693 57.8913 45.5552 57.1033 46.9616 57.1033C49.4122 57.1033 50.3302 58.8092 50.3302 61.0902V66.5678H47.8507Z" fill="#130754"/>
<path d="M59.3881 66.5691L59.3027 65.0977C58.5363 66.2274 57.1721 66.8241 55.8716 66.8241C53.3776 66.8241 51.5405 64.7344 51.5405 61.9637C51.5405 59.1931 53.374 57.1046 55.8716 57.1046C57.1071 57.1046 58.3655 57.6171 59.1535 58.6192V53.7805H61.6258V66.5691H59.3881ZM56.6403 58.9417C55.1906 58.9417 54.0176 60.0713 54.0176 61.9686C54.0176 63.8658 55.1894 64.9943 56.6391 64.9955C58.0888 64.9967 59.2606 63.8658 59.2606 61.9686C59.2606 60.0713 58.0888 58.9417 56.6403 58.9417Z" fill="#130754"/>
<path d="M70.9172 66.5702L70.8317 65.1001C70.0642 66.2298 68.6999 66.8265 67.4006 66.8253C64.9067 66.8253 63.0696 64.7368 63.0696 61.9661C63.0696 59.1955 64.903 57.1057 67.4006 57.1069C68.6999 57.1069 70.0642 57.7085 70.8317 58.8333L70.9172 57.3632H73.1609V66.5702H70.9172ZM68.1682 58.9416C66.7185 58.9416 65.5467 60.0713 65.5467 61.9685C65.5467 63.8657 66.7185 64.9954 68.1682 64.9954C69.6178 64.9954 70.7896 63.8657 70.7896 61.9685C70.7896 60.0713 69.6178 58.9416 68.1682 58.9416Z" fill="#130754"/>
<path d="M78.6334 66.8699C77.3328 66.8595 76.059 66.4988 74.946 65.8256L75.3503 64.1149C76.0962 64.5624 77.2258 65.1387 78.5901 65.1387C79.5706 65.1387 80.2528 64.8403 80.2528 64.0728C80.2528 63.4123 79.5502 63.1777 78.2918 62.8793C76.0336 62.3885 75.2227 61.1951 75.224 59.8945C75.224 58.4509 76.3536 57.0818 78.8476 57.0818C80.361 57.0818 81.682 57.7435 81.9755 57.9131L81.5749 59.5433C80.7698 59.0581 79.8512 58.7934 78.9113 58.7757C77.9092 58.7757 77.4183 59.1162 77.4183 59.6708C77.4183 60.2879 78.0584 60.5659 79.0389 60.8005C81.4678 61.3118 82.4483 62.4414 82.4483 63.6782C82.4483 65.656 80.9986 66.8699 78.6334 66.8699Z" fill="#130754"/>
<path d="M49.2175 25.5024H46.3193V31.5202H49.2175V25.5024Z" fill="#130754"/>
<path d="M49.2175 37.864H46.3193V43.8817H49.2175V37.864Z" fill="#130754"/>
<path d="M49.2175 33.2778H46.3193V36.1171H49.2175V33.2778Z" fill="#FFCA00"/>
<path d="M44.5615 30.4507H41.6633V50.454H44.5615V30.4507Z" fill="#130754"/>
<path d="M53.7771 42.8291H50.8789V48.8468H53.7771V42.8291Z" fill="#130754"/>
<path d="M53.7771 30.458H50.8789V36.4757H53.7771V30.458Z" fill="#130754"/>
<path d="M53.7771 38.2322H50.8789V41.0714H53.7771V38.2322Z" fill="#E70488"/>
<path d="M58.3354 23.9363H55.4373V43.9396H58.3354V23.9363Z" fill="#130754"/>
</svg>
