<svg width="100" height="100" viewBox="0 0 100 100" fill="none" xmlns="http://www.w3.org/2000/svg">
<circle cx="50" cy="50" r="50" fill="#D9EEE1"/>
<path d="M85 46.3013C85 33.3494 69.3253 22.8555 50 22.8555C30.6747 22.8555 15 33.3494 15 46.3013C15 57.8434 27.4458 67.4338 43.8434 69.3735V76.8314H55.7831V69.4217C58.7108 69.0964 61.5181 68.5302 64.1446 67.747L68.9759 76.8314H82.4699L74.3494 63.1326C80.9157 58.8675 85 52.9037 85 46.3013V46.3013ZM28.759 48.0482C28.759 39.1928 40.6747 32.0241 55.3614 32.0241C70.0482 32.0241 80.8916 36.9278 80.8916 48.0482C80.8916 54.0844 77.6988 58.2892 72.4217 60.8675C72.1325 60.6747 71.8554 60.5181 71.6506 60.4217C70.4217 59.7952 68.3012 59.1567 68.3012 59.1567C68.3012 59.1567 78.7349 58.3856 78.7349 47.988C78.7349 37.5904 67.8193 37.3976 67.8193 37.3976H43.8434V62.494C34.9157 59.9037 28.759 54.4097 28.759 48.0482V48.0482ZM55.8795 52.6627V45.9639C62.8434 45.9639 66.4578 45.1446 66.4578 49.2531C66.4578 53.6506 61.8554 52.6627 55.8795 52.6627ZM55.7711 61.3976H58.9759C60.2771 61.3976 61.253 62.8073 61.8675 63.7109C59.9277 63.9398 57.8916 64.0482 55.7711 64.0603V61.3976V61.3976Z" fill="#282A35"/>
</svg>
