<svg width="100" height="100" viewBox="0 0 100 100" fill="none" xmlns="http://www.w3.org/2000/svg">
<circle cx="50" cy="50" r="50" fill="#FFF4A3"/>
<path d="M68.9844 40.3594C68.2812 40.125 67.6953 39.8906 67.1094 39.7734C67.1094 39.3047 67.2266 38.8359 67.3438 38.3672C68.75 31.4531 67.8125 25.8281 64.6484 23.9531C61.6016 22.1953 56.5625 24.0703 51.4062 28.5234C50.9375 28.875 50.4688 29.3437 50 29.8125C49.6484 29.4609 49.2969 29.2266 49.0625 28.875C43.6719 24.1875 38.2812 22.1953 35.1172 24.0703C32.0703 25.8281 31.1328 31.1016 32.4219 37.7812C32.5391 38.3672 32.6562 39.0703 32.8906 39.6562C32.0703 39.8906 31.3672 40.125 30.6641 40.3594C24.4531 42.5859 20 45.9844 20 49.5C20 53.1328 24.6875 56.8828 31.25 59.1094C31.7188 59.2266 32.3047 59.4609 32.7734 59.5781C32.6562 60.2812 32.5391 60.9844 32.3047 61.6875C31.1328 68.1328 32.0703 73.2891 35.1172 75.0469C38.2812 76.9219 43.6719 75.0469 48.8281 70.4766C49.1797 70.125 49.6484 69.7734 50 69.4219C50.5859 69.8906 51.0547 70.3594 51.6406 70.8281C56.6797 75.1641 61.6016 76.9219 64.6484 75.1641C67.8125 73.2891 68.8672 67.7812 67.5781 60.9844C67.4609 60.5156 67.3438 59.9297 67.2266 59.4609C67.5781 59.3437 67.9297 59.2266 68.2812 59.1094C75.0781 56.8828 80 53.25 80 49.5C80 45.9844 75.3125 42.4687 68.9844 40.3594ZM53.0469 30.3984C57.5 26.5312 61.4844 25.125 63.3594 26.1797C65.3516 27.2344 66.1719 31.9219 64.8828 37.8984C64.7656 38.3672 64.7656 38.7187 64.6484 39.0703C61.9531 38.4844 59.375 38.1328 56.6797 37.8984C55.1562 35.6719 53.5156 33.5625 51.7578 31.5703C52.2266 31.2187 52.5781 30.75 53.0469 30.3984ZM39.5703 55.5937C40.1562 56.6484 40.7422 57.5859 41.4453 58.6406C39.5703 58.4062 37.6953 58.1719 35.9375 57.7031C36.5234 56.0625 37.1094 54.3047 37.8125 52.5469C38.3984 53.6016 38.9844 54.5391 39.5703 55.5937ZM35.9375 41.5312C37.6953 41.0625 39.4531 40.8281 41.3281 40.5937C40.7422 41.5312 40.1562 42.5859 39.5703 43.5234C38.9844 44.5781 38.3984 45.5156 37.8125 46.5703C37.1094 44.8125 36.5234 43.1719 35.9375 41.5312ZM39.2188 49.6172C39.9219 47.9766 40.8594 46.3359 41.6797 44.8125C42.6172 43.2891 43.5547 41.7656 44.6094 40.2422C46.3672 40.125 48.125 40.0078 50 40.0078C51.7578 40.0078 53.6328 40.125 55.2734 40.2422C56.3281 41.7656 57.2656 43.2891 58.2031 44.8125C59.0234 46.3359 59.9609 47.8594 60.6641 49.5C59.9609 51.1406 59.1406 52.7812 58.2031 54.3047C57.2656 55.8281 56.3281 57.3516 55.3906 58.875C53.6328 58.9922 51.7578 59.1094 50 59.1094C48.125 59.1094 46.3672 58.9922 44.6094 58.875C43.5547 57.3516 42.6172 55.8281 41.6797 54.3047C40.8594 52.7812 40.0391 51.1406 39.2188 49.6172ZM60.3125 55.5937C61.0156 54.5391 61.4844 53.4844 62.0703 52.4297C62.7734 54.1875 63.4766 55.8281 64.0625 57.5859C62.1875 58.0547 60.4297 58.4062 58.5547 58.5234C59.1406 57.5859 59.7266 56.5312 60.3125 55.5937ZM62.0703 46.5703C61.4844 45.5156 60.8984 44.5781 60.3125 43.5234C59.7266 42.5859 59.1406 41.5312 58.5547 40.5937C60.4297 40.8281 62.3047 41.1797 63.9453 41.5312C63.3594 43.2891 62.7734 44.9297 62.0703 46.5703ZM50 33.4453C51.1719 34.7344 52.3438 36.1406 53.3984 37.6641C51.1719 37.5469 48.8281 37.5469 46.4844 37.6641C47.6562 36.1406 48.8281 34.7344 50 33.4453ZM36.4062 26.1797C38.3984 25.125 42.7344 26.7656 47.3047 30.75C47.6562 31.1016 47.8906 31.3359 48.2422 31.5703C46.3672 33.5625 44.7266 35.6719 43.2031 37.8984C40.5078 38.1328 37.9297 38.4844 35.3516 39.0703C35.1172 38.4844 35 37.8984 34.8828 37.1953C33.8281 31.5703 34.5312 27.3516 36.4062 26.1797ZM33.4766 57.1172C33.0078 57 32.5391 56.8828 32.0703 56.6484C29.6094 55.8281 26.6797 54.6562 24.6875 53.0156C23.5156 52.1953 22.6953 50.9062 22.4609 49.5C22.4609 47.3906 26.2109 44.5781 31.4844 42.7031C32.1875 42.4687 32.8906 42.3516 33.5938 42.1172C34.2969 44.6953 35.3516 47.1562 36.4062 49.6172C35.2344 51.9609 34.2969 54.5391 33.4766 57.1172ZM47.1875 68.6016C45.1953 70.3594 42.9688 71.7656 40.5078 72.7031C39.2188 73.4062 37.8125 73.4062 36.4062 72.9375C34.5312 71.7656 33.8281 67.6641 34.8828 62.1562C35 61.4531 35.1172 60.75 35.2344 60.1641C37.9297 60.75 40.5078 61.1016 43.2031 61.3359C44.7266 63.4453 46.4844 65.5547 48.2422 67.5469C47.8906 67.8984 47.5391 68.25 47.1875 68.6016ZM50 65.7891C48.8281 64.5 47.6562 63.0937 46.4844 61.4531C47.6562 61.5703 48.8281 61.5703 50 61.5703C51.1719 61.5703 52.3438 61.5703 53.5156 61.4531C52.4609 62.9766 51.2891 64.3828 50 65.7891ZM65.3516 69.3047C65.2344 70.7109 64.5312 72 63.4766 72.9375C61.6016 73.9922 57.6172 72.5859 53.2812 68.9531C52.8125 68.4844 52.3438 68.0156 51.7578 67.5469C53.6328 65.5547 55.2734 63.5625 56.7969 61.3359C59.4922 61.1016 62.0703 60.6328 64.7656 60.0469C64.8828 60.5156 65 60.9844 65.1172 61.4531C65.5859 64.0312 65.7031 66.7266 65.3516 69.3047ZM67.4609 56.6484C67.1094 56.7656 66.875 56.8828 66.5234 57C65.7031 54.4219 64.6484 51.9609 63.4766 49.5C64.6484 47.1562 65.5859 44.6953 66.4062 42.1172C66.9922 42.3516 67.5781 42.4687 68.1641 42.7031C73.5547 44.5781 77.4219 47.3906 77.4219 49.5C77.4219 51.7266 73.3203 54.7734 67.4609 56.6484ZM50 54.8906C52.9297 54.8906 55.2734 52.5469 55.2734 49.5C55.2734 46.5703 52.9297 44.2266 50 44.2266C46.9531 44.2266 44.6094 46.5703 44.6094 49.5C44.6094 52.5469 46.9531 54.8906 50 54.8906Z" fill="#282A35"/>
</svg>
