<svg width="100" height="100" viewBox="0 0 100 100" fill="none" xmlns="http://www.w3.org/2000/svg">
<circle cx="50" cy="50" r="50" fill="#FFF4A3"/>
<path d="M51.2735 62.914C51.2735 63.0312 51.2735 63.0312 51.2735 62.914ZM80.4531 52.7187C78.1094 52.7187 75.7656 53.3047 73.6563 54.3594C73.0703 52.9531 72.25 51.7812 72.1328 50.8437C72.0156 49.789 71.8985 49.0859 72.0156 47.914C72.25 46.625 72.9531 44.75 72.9531 44.6328C72.9531 44.5156 72.836 43.9297 71.3125 43.9297C69.7891 43.9297 68.5 44.164 68.2656 44.6328C68.0313 45.3359 67.7969 46.039 67.6797 46.8594C67.4453 48.1484 64.6328 53.0703 63.1094 55.6484C62.6406 54.5937 62.1719 53.7734 62.0547 53.0703C61.9375 52.0156 61.8203 51.3125 61.9375 50.1406C62.0547 48.8515 62.875 47.0937 62.875 46.8594C62.7578 46.7422 62.6406 46.1562 61.1172 46.1562C59.5938 46.1562 58.3047 46.3906 58.1875 46.8594C58.0703 47.2109 57.836 48.1484 57.6016 49.0859C57.25 49.9062 53.6172 58.1094 52.6797 60.2187C52.0938 61.2734 51.7422 62.2109 51.3906 62.7969C51.3906 62.914 51.3906 62.914 51.2735 62.914C51.3906 62.914 51.3906 62.7969 51.3906 62.914C51.1563 63.3828 50.9219 63.6172 50.9219 63.6172C50.8047 64.0859 50.5703 64.4375 50.4531 64.4375C50.336 64.4375 50.2188 63.3828 50.4531 62.0937C51.0391 59.164 52.3281 54.8281 52.3281 54.7109C52.3281 54.5937 52.5625 53.7734 51.5078 53.4219C50.336 53.0703 49.9844 53.6562 49.8672 53.6562L49.75 53.8906C49.75 53.8906 50.9219 48.9687 47.5235 48.9687C45.2969 48.9687 42.3672 51.3125 40.8438 53.4219C39.9063 53.8906 37.9141 55.0625 35.8047 56.2344C34.9844 56.5859 34.1641 57.0547 33.3438 57.5234L33.2266 57.4062C29.0078 52.8359 21.2735 49.6719 21.625 43.6953C21.7422 41.4687 22.4453 35.7265 36.5078 28.8125C47.9922 23.0703 57.1328 24.5937 58.7735 28.1094C61 33.1484 53.8516 42.4062 41.8985 43.6953C37.3281 44.164 34.9844 42.4062 34.3985 41.8203C33.6953 41.1172 33.6953 41.1172 33.461 41.2344C32.9922 41.3515 33.2266 42.0547 33.461 42.4062C33.8125 43.3437 35.2188 44.9844 37.6797 45.8047C39.9063 46.5078 45.2969 46.8594 51.7422 44.3984C58.8906 41.5859 64.5156 33.8515 62.875 27.289C61.2344 20.7265 50.336 18.5 39.9063 22.25C33.6953 24.3594 27.0156 27.875 22.211 32.3281C16.586 37.7187 15.6485 42.289 16 44.2812C17.4063 51.1953 26.8985 55.6484 30.6485 59.0469C30.5313 59.164 30.2969 59.164 30.1797 59.2812C28.1875 60.2187 21.0391 64.0859 19.1641 68.0703C17.1719 72.6406 19.5156 75.9219 21.0391 76.2734C25.961 77.6797 31 75.2187 33.6953 71.2344C36.3906 67.1328 36.0391 61.9765 34.75 59.5156C34.75 59.5156 34.75 59.5156 34.75 59.3984C35.2188 59.164 35.8047 58.8125 36.2735 58.5781C37.211 57.9922 38.1485 57.5234 38.9688 57.0547C38.5 58.2265 38.1485 59.75 38.0313 61.9765C37.7969 64.5547 38.8516 67.9531 40.2578 69.2422C40.8438 69.8281 41.6641 69.8281 42.0156 69.8281C43.6563 69.8281 44.3594 68.539 45.1797 66.8984C46.2344 64.9062 47.0547 62.6797 47.0547 62.6797C47.0547 62.6797 46 68.7734 49.0469 68.7734C50.1016 68.7734 51.1563 67.3672 51.7422 66.664C51.7422 66.664 51.7422 66.664 51.7422 66.5469C51.8594 66.3125 51.9766 66.1953 51.9766 66.1953C52.4453 65.4922 53.3828 63.7344 54.7891 60.8047C56.7813 57.0547 58.5391 52.4844 58.5391 52.4844C58.7735 53.4219 59.0078 54.4765 59.2422 55.414C59.5938 56.5859 60.2969 57.7578 60.8828 58.9297C60.4141 59.6328 60.1797 59.9844 60.1797 59.9844C59.8281 60.4531 59.3594 60.9219 59.0078 61.3906C57.4844 63.2656 55.7266 65.2578 55.4922 65.8437C55.1406 66.5469 55.2578 67.0156 55.8438 67.4844C56.1953 67.7187 56.8985 67.8359 57.6016 67.7187C59.0078 67.6015 59.9453 67.3672 60.4141 67.1328C61.2344 66.7812 62.0547 66.4297 62.7578 65.8437C64.2813 64.789 65.1016 63.2656 64.9844 61.1562C64.9844 60.1015 64.6328 58.9297 64.1641 57.875C64.2813 57.7578 64.3985 57.5234 64.6328 57.289C66.8594 53.8906 68.7344 50.1406 68.7344 50.1406C68.8516 51.1953 69.086 52.25 69.4375 53.1875C69.6719 54.125 70.2578 55.1797 70.7266 56.2344C68.6172 57.9922 67.211 60.1015 66.7422 61.3906C65.9219 63.8515 66.625 65.0234 67.7969 65.2578C68.3828 65.375 69.2031 65.1406 69.9063 64.9062C70.7266 64.5547 71.6641 64.0859 72.3672 63.6172C73.8906 62.4453 75.2969 60.9219 75.1797 58.9297C75.1797 57.9922 74.8281 57.0547 74.4766 56.2344C76.3516 55.414 78.8125 54.9453 81.8594 55.2969C88.3047 56.1172 89.5938 60.2187 89.3594 61.8594C89.125 63.6172 87.7188 64.5547 87.25 64.789C86.7813 65.1406 86.6641 65.1406 86.7813 65.375C86.7813 65.7265 87.0156 65.7265 87.3672 65.6094C87.9531 65.4922 90.7656 64.2031 90.8828 61.039C91.1172 57.0547 87.25 52.7187 80.4531 52.7187ZM30.1797 69.7109C28.0703 72.0547 25.0235 72.9922 23.7344 72.1719C22.3281 71.3515 22.9141 67.9531 25.6094 65.375C27.1328 63.8515 29.2422 62.4453 30.6485 61.625C31 61.3906 31.3516 61.1562 31.9375 60.8047C32.0547 60.8047 32.0547 60.6875 32.0547 60.6875C32.1719 60.6875 32.2891 60.5703 32.4063 60.5703C33.461 64.0859 32.5235 67.25 30.1797 69.7109ZM46 59.0469C45.1797 60.8047 43.6563 65.4922 42.7188 65.2578C41.8985 65.1406 41.3125 61.5078 42.4844 57.9922C43.0703 56.2344 44.3594 54.125 45.0625 53.3047C46.2344 52.0156 47.5235 51.5469 47.875 52.1328C48.2266 52.7187 46.4688 57.875 46 59.0469ZM59.0078 65.2578C58.6563 65.375 58.3047 65.4922 58.1875 65.375C58.0703 65.375 58.3047 65.1406 58.3047 65.1406C58.3047 65.1406 59.9453 63.3828 60.6485 62.5625C61 62.0937 61.4688 61.625 61.9375 60.9219C61.9375 61.039 61.9375 61.039 61.9375 61.1562C61.9375 63.2656 59.8281 64.6719 59.0078 65.2578ZM68.9688 62.914C68.7344 62.7969 68.8516 62.2109 69.5547 60.5703C69.9063 59.8672 70.6094 58.6953 71.7813 57.6406C71.8985 57.9922 72.0156 58.4609 72.0156 58.9297C72.0156 61.5078 70.1406 62.5625 68.9688 62.914Z" fill="#282A35"/>
</svg>
