<svg width="100" height="100" viewBox="0 0 100 100" fill="none" xmlns="http://www.w3.org/2000/svg">
<circle cx="50" cy="50" r="50" fill="#D9EEE1"/>
<g clip-path="url(#clip0_3858_77278)">
<path d="M49.6473 19.0925C45.6369 19.0925 41.6657 19.8824 37.9605 21.4171C34.2554 22.9519 30.8888 25.2013 28.053 28.0371C25.2172 30.8729 22.9677 34.2395 21.433 37.9447C19.8983 41.6498 19.1084 45.621 19.1084 49.6314C19.1102 54.6921 20.3696 59.673 22.7734 64.1264C22.9489 64.1674 23.1172 64.2343 23.2809 64.3097C23.8732 64.5822 24.4328 64.9762 24.7648 65.5374C24.9309 65.818 25.0361 66.1371 25.0494 66.4629C25.0626 66.7856 24.9818 67.1137 24.8066 67.385C27.6314 71.3386 31.3589 74.561 35.6793 76.7847C39.9996 79.0083 44.7882 80.1689 49.6473 80.1701C57.7467 80.1701 65.5143 76.9526 71.2415 71.2255C76.9686 65.4984 80.1861 57.7308 80.1862 49.6314C80.1862 45.621 79.3963 41.6498 77.8616 37.9447C76.3268 34.2395 74.0774 30.8729 71.2416 28.0371C68.4058 25.2013 65.0392 22.9519 61.334 21.4171C57.6289 19.8824 53.6577 19.0925 49.6473 19.0925V19.0925Z" fill="#282A35"/>
<path fill-rule="evenodd" clip-rule="evenodd" d="M77.886 38.1513L79.4446 37.4263L80.4978 34.5476L81.6031 34.9349L80.6537 37.5089L83.2844 38.4157L82.8877 39.4937L79.95 38.4677L78.3301 39.2127" fill="#282A35"/>
<path fill-rule="evenodd" clip-rule="evenodd" d="M61.0003 53.64C58.8968 50.7628 54.7401 49.0899 51.1744 48.3046C47.6087 47.5192 45.4385 46.9118 43.7052 45.9739C41.7268 44.9034 40.1715 41.7467 40.7789 39.0099C41.7321 34.7147 45.568 31.6241 49.9486 32.2357C52.1364 32.5451 53.9916 33.7034 55.2148 35.334L60.0652 41.7064C62.8377 45.277 65.9548 46.3396 69.3459 44.6536L70.996 43.8737C71.133 43.81 71.2991 43.6814 71.568 43.7669C71.8369 43.8524 71.9688 44.0844 72.1197 44.3558C72.2706 44.6271 72.43 44.8772 72.7139 44.9455C72.9978 45.0138 73.3932 44.9669 73.5781 44.7907C74.835 43.5925 77.3846 41.1527 77.3846 41.1527C78.0741 40.5623 77.871 40.0204 77.871 40.0204L76.9216 37.8584C76.9216 37.8584 76.6619 37.3401 75.7645 37.4593L70.4842 37.9446C70.1772 37.9883 69.9033 38.1926 69.7853 38.5043C69.7144 38.6862 69.7097 38.8762 69.7617 39.0486L69.9507 39.6567C69.9885 39.783 69.9885 39.9247 69.9365 40.0546C69.8751 40.2152 69.7524 40.3286 69.606 40.3888L68.1135 41.0205C66.3933 41.604 64.7744 41.3511 63.5889 39.9012L62.2334 38.1005L58.3747 32.9796C56.5422 30.5495 53.7792 28.8162 50.5157 28.3605C43.9815 27.4455 37.9172 31.9701 36.9679 38.4665C36.4885 41.7406 36.9389 44.5098 39.4125 47.3387C41.8862 50.1676 46.6969 51.2453 50.8642 52.2004C51.3101 52.3062 52.5645 52.6161 53.3069 52.8842C53.9931 53.1327 55.5739 53.7155 56.8585 54.7668C58.3935 56.3272 59.2058 58.5565 58.8611 60.8944C58.2802 64.8806 54.5585 67.6577 50.5487 67.0956C48.5403 66.8169 46.8447 65.7524 45.7218 64.2618L41.0886 58.1125C40.144 56.8591 38.7154 55.9636 37.0269 55.7227C35.3408 55.4865 33.709 55.9541 32.4445 56.9015L22.7666 64.1241C23.1768 65.291 23.696 66.4507 24.8031 67.3933L34.7809 59.9121C35.2378 59.6004 35.8046 59.4587 36.3926 59.539C37.0184 59.6287 37.5509 59.9575 37.9004 60.4222L42.8017 67.0089C44.5279 69.1267 47.0359 70.6267 49.9723 71.0395C56.15 71.9037 61.8837 67.6248 62.7811 61.4802C63.1965 58.6208 62.4975 55.8598 61.0003 53.64" fill="#D9EEE1"/>
</g>
<defs>
<clipPath id="clip0_3858_77278">
<rect width="65" height="62.2917" fill="white" transform="translate(18.5 18.5)"/>
</clipPath>
</defs>
</svg>
