<svg width="100" height="100" viewBox="0 0 100 100" fill="none" xmlns="http://www.w3.org/2000/svg">
<circle cx="50" cy="50" r="50" fill="#D9EEE1"/>
<path d="M33.25 57.5H28.25C27.5594 57.5 27 58.0594 27 58.75V68.75C27 69.4406 27.5594 70 28.25 70H33.25C33.9406 70 34.5 69.4406 34.5 68.75V58.75C34.5 58.0594 33.9406 57.5 33.25 57.5ZM32 67.5H29.5V60H32V67.5ZM70.75 45H65.75C65.0594 45 64.5 45.5594 64.5 46.25V68.75C64.5 69.4406 65.0594 70 65.75 70H70.75C71.4406 70 72 69.4406 72 68.75V46.25C72 45.5594 71.4406 45 70.75 45ZM69.5 67.5H67V47.5H69.5V67.5ZM66.2789 36.9281C66.8531 37.2844 67.5242 37.5 68.25 37.5C70.3211 37.5 72 35.8211 72 33.75C72 31.6789 70.3211 30 68.25 30C66.1789 30 64.5 31.6789 64.5 33.75C64.5 34.1805 64.5875 34.5867 64.7211 34.9719L57.7211 40.5719C57.1469 40.2148 56.4758 39.9992 55.75 39.9992C55.0242 39.9992 54.3531 40.2148 53.7789 40.5719L46.7789 34.9719C46.9125 34.5875 47 34.1805 47 33.75C47 31.6789 45.3211 30 43.25 30C41.1789 30 39.5 31.6789 39.5 33.75C39.5 34.3281 39.6414 34.8688 39.875 35.3578L32.3578 42.875C31.8688 42.6414 31.3281 42.5 30.75 42.5C28.6789 42.5 27 44.1789 27 46.25C27 48.3211 28.6789 50 30.75 50C32.8211 50 34.5 48.3211 34.5 46.25C34.5 45.6719 34.3586 45.1312 34.125 44.6422L41.6422 37.125C42.1312 37.3586 42.6719 37.5 43.25 37.5C43.9758 37.5 44.6469 37.2844 45.2211 36.9273L52.2211 42.5273C52.0875 42.9125 52 43.3195 52 43.75C52 45.8211 53.6789 47.5 55.75 47.5C57.8211 47.5 59.5 45.8211 59.5 43.75C59.5 43.3195 59.4125 42.9125 59.2789 42.5273L66.2789 36.9281V36.9281ZM68.25 32.5C68.9391 32.5 69.5 33.0609 69.5 33.75C69.5 34.4391 68.9391 35 68.25 35C67.5609 35 67 34.4391 67 33.75C67 33.0609 67.5609 32.5 68.25 32.5ZM30.75 47.5C30.0609 47.5 29.5 46.9391 29.5 46.25C29.5 45.5609 30.0609 45 30.75 45C31.4391 45 32 45.5609 32 46.25C32 46.9391 31.4391 47.5 30.75 47.5ZM43.25 35C42.5609 35 42 34.4391 42 33.75C42 33.0609 42.5609 32.5 43.25 32.5C43.9391 32.5 44.5 33.0609 44.5 33.75C44.5 34.4391 43.9391 35 43.25 35ZM55.75 45C55.0609 45 54.5 44.4391 54.5 43.75C54.5 43.0609 55.0609 42.5 55.75 42.5C56.4391 42.5 57 43.0609 57 43.75C57 44.4391 56.4391 45 55.75 45ZM45.75 45H40.75C40.0594 45 39.5 45.5594 39.5 46.25V68.75C39.5 69.4406 40.0594 70 40.75 70H45.75C46.4406 70 47 69.4406 47 68.75V46.25C47 45.5594 46.4406 45 45.75 45ZM44.5 67.5H42V47.5H44.5V67.5ZM58.25 55H53.25C52.5594 55 52 55.5594 52 56.25V68.75C52 69.4406 52.5594 70 53.25 70H58.25C58.9406 70 59.5 69.4406 59.5 68.75V56.25C59.5 55.5594 58.9406 55 58.25 55ZM57 67.5H54.5V57.5H57V67.5Z" fill="#282A35"/>
</svg>
