<svg width="100" height="100" viewBox="0 0 100 100" fill="none" xmlns="http://www.w3.org/2000/svg">
<circle cx="50" cy="50" r="50" fill="#FFF4A3"/>
<path d="M65 38L66.8973 60.0982L75.7143 63L84.4754 60.0982L86.4286 38H65ZM82.4665 42.4643L82.1875 45.1429L75.7701 47.8772H75.7143H81.9643L81.2388 56.0804L75.7701 57.6429L70.2455 56.0246L69.9107 51.8951H72.5893L72.8125 54.0714L75.7143 54.7969L78.7835 53.9598L79.0067 50.5L69.6875 50.4442L69.5201 47.8772L75.7701 45.2545L76.1049 45.1429H69.2411L68.9063 42.4643H82.4665Z" fill="#282A35"/>
<path d="M33.7134 43.6301C33.7134 43.6301 34.3027 44.2615 35.1259 44.2615C35.776 44.2615 36.2483 43.8687 36.2483 43.3308C36.2483 42.6714 35.645 42.3674 34.9154 42.3674H34.4851L34.2279 41.7874L35.3691 40.4358C35.6123 40.1458 35.818 39.9634 35.818 39.9634C35.818 39.9634 35.6356 39.9728 35.2662 39.9728H33.4094V39H37.2118V39.7109L35.6871 41.4741C36.5476 41.5957 37.3895 42.2084 37.3895 43.2887C37.3895 44.3504 36.5851 45.3325 35.196 45.3325C33.8725 45.3325 33.1382 44.5 33.1382 44.5L33.7134 43.6301Z" fill="#282A35"/>
<path d="M26.2956 44.9444L31.3186 53.8866L33.7973 49.467L29.0549 41.0251H23.5362L21.2492 45.0987L18.9622 41.0251H14L21.2211 53.8866L21.2492 53.8399L21.2773 53.8866L26.2956 44.9444Z" fill="#282A35"/>
<path d="M14.052 59.9477H14.7863C14.7863 60.1628 14.9734 60.3686 15.3054 60.3686C15.6141 60.3686 15.8199 60.2143 15.8199 60.0085C15.8199 59.8308 15.6842 59.7513 15.4504 59.6998L15.0295 59.5923C14.3186 59.4052 14.1362 59.0264 14.1362 58.6241C14.1362 58.1331 14.6226 57.6841 15.3101 57.6841C15.8713 57.6841 16.5074 57.9694 16.498 58.6709H15.7544C15.7544 58.4558 15.558 58.3201 15.3335 58.3201C15.0903 58.3201 14.9219 58.4604 14.9219 58.6569C14.9219 58.8206 15.0762 58.9141 15.2586 58.9562L15.7637 59.0918C16.4746 59.2742 16.6009 59.7185 16.6009 60.0085C16.6009 60.6492 15.9602 61 15.3194 61C14.6974 61 14.066 60.6212 14.052 59.9477Z" fill="#282A35"/>
<path d="M17.251 59.3397C17.251 58.3388 18.0554 57.6841 18.9674 57.6841C19.5146 57.6841 19.9589 57.9273 20.2489 58.2921L19.697 58.7317C19.5333 58.5353 19.2667 58.4137 18.9814 58.4137C18.4342 58.4137 18.0414 58.8065 18.0414 59.3397C18.0414 59.8682 18.4342 60.2704 18.9814 60.2704C19.2667 60.2704 19.5333 60.1488 19.697 59.9524L20.2489 60.392C19.9589 60.7568 19.5146 61 18.9674 61C18.0554 61 17.251 60.3406 17.251 59.3397Z" fill="#282A35"/>
<path d="M24.0277 59.1481V60.916H23.242V59.2043C23.242 58.6992 22.938 58.4279 22.5872 58.4279C22.2271 58.4279 21.7828 58.6384 21.7828 59.251V60.9207H20.9971V56.0474H21.7875V58.2408C21.9418 57.8573 22.4516 57.6796 22.7649 57.6796C23.5787 57.6843 24.0277 58.2315 24.0277 59.1481Z" fill="#282A35"/>
<path d="M24.8513 59.3397C24.8513 58.3388 25.6277 57.6841 26.5256 57.6841C27.4236 57.6841 28.2093 58.3388 28.2093 59.3397C28.2093 60.3406 27.4236 61 26.5256 61C25.6277 61 24.8513 60.3406 24.8513 59.3397ZM27.4189 59.3397C27.4189 58.7972 27.012 58.4137 26.5256 58.4137C26.0393 58.4137 25.6417 58.7972 25.6417 59.3397C25.6417 59.8916 26.0393 60.2704 26.5256 60.2704C27.012 60.2704 27.4189 59.8916 27.4189 59.3397Z" fill="#282A35"/>
<path d="M28.8782 59.3397C28.8782 58.3388 29.6545 57.6841 30.5525 57.6841C31.4505 57.6841 32.2362 58.3388 32.2362 59.3397C32.2362 60.3406 31.4505 61 30.5525 61C29.6592 61 28.8782 60.3406 28.8782 59.3397ZM31.4458 59.3397C31.4458 58.7972 31.0389 58.4137 30.5525 58.4137C30.0661 58.4137 29.6686 58.7972 29.6686 59.3397C29.6686 59.8916 30.0661 60.2704 30.5525 60.2704C31.0436 60.2704 31.4458 59.8916 31.4458 59.3397Z" fill="#282A35"/>
<path d="M33.1052 60.9207V56.0474H33.8909V60.9207H33.1052Z" fill="#282A35"/>
<path d="M34.7473 59.9477H35.4816C35.4816 60.1628 35.6687 60.3686 36.0007 60.3686C36.3094 60.3686 36.5152 60.2143 36.5152 60.0085C36.5152 59.8308 36.3796 59.7513 36.1457 59.6998L35.7248 59.5923C35.0139 59.4052 34.8315 59.0264 34.8315 58.6241C34.8315 58.1331 35.3179 57.6841 36.0054 57.6841C36.5666 57.6841 37.2027 57.9694 37.1933 58.6709H36.445C36.445 58.4558 36.2486 58.3201 36.0241 58.3201C35.7809 58.3201 35.6125 58.4604 35.6125 58.6569C35.6125 58.8206 35.7669 58.9141 35.9493 58.9562L36.4544 59.0918C37.1653 59.2742 37.2915 59.7185 37.2915 60.0085C37.2915 60.6492 36.6508 61 36.0101 61C35.388 61 34.7613 60.6212 34.7473 59.9477Z" fill="#282A35"/>
<path d="M49.2192 56.504V51.824H44.8512V50.336H49.2192V45.656H50.7792V50.336H55.1472V51.824H50.7792V56.504H49.2192Z" fill="#282A35"/>
</svg>
